<?xml version="1.0" encoding="UTF-8" ?>
<svg version="1.1" width="216" height="252" xmlns="http://www.w3.org/2000/svg" shape-rendering="crispEdges">
<rect x="60" y="12" width="12" height="12" fill="#592F80" />
<rect x="72" y="12" width="12" height="12" fill="#592F80" />
<rect x="84" y="12" width="12" height="12" fill="#592F80" />
<rect x="48" y="24" width="12" height="12" fill="#592F80" />
<rect x="60" y="24" width="12" height="12" fill="#8D32B3" />
<rect x="72" y="24" width="12" height="12" fill="#8D32B3" />
<rect x="84" y="24" width="12" height="12" fill="#592F80" />
<rect x="36" y="36" width="12" height="12" fill="#592F80" />
<rect x="48" y="36" width="12" height="12" fill="#8D32B3" />
<rect x="60" y="36" width="12" height="12" fill="#E679DA" />
<rect x="72" y="36" width="12" height="12" fill="#8D32B3" />
<rect x="84" y="36" width="12" height="12" fill="#592F80" />
<rect x="36" y="48" width="12" height="12" fill="#592F80" />
<rect x="48" y="48" width="12" height="12" fill="#8D32B3" />
<rect x="60" y="48" width="12" height="12" fill="#CC4AD3" />
<rect x="72" y="48" width="12" height="12" fill="#8D32B3" />
<rect x="84" y="48" width="12" height="12" fill="#592F80" />
<rect x="24" y="60" width="12" height="12" fill="#592F80" />
<rect x="36" y="60" width="12" height="12" fill="#CC4AD3" />
<rect x="48" y="60" width="12" height="12" fill="#8D32B3" />
<rect x="60" y="60" width="12" height="12" fill="#8D32B3" />
<rect x="72" y="60" width="12" height="12" fill="#8D32B3" />
<rect x="84" y="60" width="12" height="12" fill="#592F80" />
<rect x="24" y="72" width="12" height="12" fill="#592F80" />
<rect x="36" y="72" width="12" height="12" fill="#CC4AD3" />
<rect x="48" y="72" width="12" height="12" fill="#592F80" />
<rect x="60" y="72" width="12" height="12" fill="#8D32B3" />
<rect x="72" y="72" width="12" height="12" fill="#8D32B3" />
<rect x="84" y="72" width="12" height="12" fill="#592F80" />
<rect x="12" y="84" width="12" height="12" fill="#592F80" />
<rect x="24" y="84" width="12" height="12" fill="#CC4AD3" />
<rect x="36" y="84" width="12" height="12" fill="#592F80" />
<rect x="48" y="84" width="12" height="12" fill="#592F80" />
<rect x="60" y="84" width="12" height="12" fill="#CC4AD3" />
<rect x="72" y="84" width="12" height="12" fill="#8D32B3" />
<rect x="84" y="84" width="12" height="12" fill="#592F80" />
<rect x="12" y="96" width="12" height="12" fill="#592F80" />
<rect x="24" y="96" width="12" height="12" fill="#592F80" />
<rect x="48" y="96" width="12" height="12" fill="#592F80" />
<rect x="60" y="96" width="12" height="12" fill="#CC4AD3" />
<rect x="72" y="96" width="12" height="12" fill="#8D32B3" />
<rect x="84" y="96" width="12" height="12" fill="#592F80" />
<rect x="96" y="96" width="12" height="12" fill="#AD7757" />
<rect x="108" y="96" width="12" height="12" fill="#AD7757" />
<rect x="0" y="108" width="12" height="12" fill="#592F80" />
<rect x="48" y="108" width="12" height="12" fill="#592F80" />
<rect x="60" y="108" width="12" height="12" fill="#CC4AD3" />
<rect x="72" y="108" width="12" height="12" fill="#8D32B3" />
<rect x="84" y="108" width="12" height="12" fill="#592F80" />
<rect x="96" y="108" width="12" height="12" fill="#D7B594" />
<rect x="108" y="108" width="12" height="12" fill="#D7B594" />
<rect x="120" y="108" width="12" height="12" fill="#AD7757" />
<rect x="132" y="108" width="12" height="12" fill="#AD7757" />
<rect x="144" y="108" width="12" height="12" fill="#AD7757" />
<rect x="0" y="120" width="12" height="12" fill="#592F80" />
<rect x="12" y="120" width="12" height="12" fill="#592F80" />
<rect x="48" y="120" width="12" height="12" fill="#592F80" />
<rect x="60" y="120" width="12" height="12" fill="#CC4AD3" />
<rect x="72" y="120" width="12" height="12" fill="#8D32B3" />
<rect x="84" y="120" width="12" height="12" fill="#592F80" />
<rect x="96" y="120" width="12" height="12" fill="#D7B594" />
<rect x="108" y="120" width="12" height="12" fill="#C09473" />
<rect x="120" y="120" width="12" height="12" fill="#AD7757" />
<rect x="132" y="120" width="12" height="12" fill="#D7B594" />
<rect x="144" y="120" width="12" height="12" fill="#C09473" />
<rect x="156" y="120" width="12" height="12" fill="#AD7757" />
<rect x="168" y="120" width="12" height="12" fill="#AD7757" />
<rect x="180" y="120" width="12" height="12" fill="#AD7757" />
<rect x="0" y="132" width="12" height="12" fill="#592F80" />
<rect x="12" y="132" width="12" height="12" fill="#CC4AD3" />
<rect x="24" y="132" width="12" height="12" fill="#592F80" />
<rect x="36" y="132" width="12" height="12" fill="#592F80" />
<rect x="48" y="132" width="12" height="12" fill="#592F80" />
<rect x="60" y="132" width="12" height="12" fill="#CC4AD3" />
<rect x="72" y="132" width="12" height="12" fill="#8D32B3" />
<rect x="84" y="132" width="12" height="12" fill="#592F80" />
<rect x="96" y="132" width="12" height="12" fill="#D7B594" />
<rect x="108" y="132" width="12" height="12" fill="#C09473" />
<rect x="120" y="132" width="12" height="12" fill="#AD7757" />
<rect x="132" y="132" width="12" height="12" fill="#D7B594" />
<rect x="144" y="132" width="12" height="12" fill="#C09473" />
<rect x="156" y="132" width="12" height="12" fill="#AD7757" />
<rect x="168" y="132" width="12" height="12" fill="#D7B594" />
<rect x="180" y="132" width="12" height="12" fill="#C09473" />
<rect x="192" y="132" width="12" height="12" fill="#AD7757" />
<rect x="0" y="144" width="12" height="12" fill="#592F80" />
<rect x="12" y="144" width="12" height="12" fill="#CC4AD3" />
<rect x="24" y="144" width="12" height="12" fill="#8D32B3" />
<rect x="36" y="144" width="12" height="12" fill="#AD7757" />
<rect x="48" y="144" width="12" height="12" fill="#AD7757" />
<rect x="60" y="144" width="12" height="12" fill="#AD7757" />
<rect x="72" y="144" width="12" height="12" fill="#AD7757" />
<rect x="84" y="144" width="12" height="12" fill="#AD7757" />
<rect x="96" y="144" width="12" height="12" fill="#C09473" />
<rect x="108" y="144" width="12" height="12" fill="#C09473" />
<rect x="120" y="144" width="12" height="12" fill="#AD7757" />
<rect x="132" y="144" width="12" height="12" fill="#D7B594" />
<rect x="144" y="144" width="12" height="12" fill="#C09473" />
<rect x="156" y="144" width="12" height="12" fill="#AD7757" />
<rect x="168" y="144" width="12" height="12" fill="#D7B594" />
<rect x="180" y="144" width="12" height="12" fill="#C09473" />
<rect x="192" y="144" width="12" height="12" fill="#7A4841" />
<rect x="0" y="156" width="12" height="12" fill="#592F80" />
<rect x="12" y="156" width="12" height="12" fill="#CC4AD3" />
<rect x="24" y="156" width="12" height="12" fill="#CC4AD3" />
<rect x="36" y="156" width="12" height="12" fill="#AD7757" />
<rect x="48" y="156" width="12" height="12" fill="#D7B594" />
<rect x="60" y="156" width="12" height="12" fill="#C09473" />
<rect x="72" y="156" width="12" height="12" fill="#C09473" />
<rect x="84" y="156" width="12" height="12" fill="#C09473" />
<rect x="96" y="156" width="12" height="12" fill="#7A4841" />
<rect x="108" y="156" width="12" height="12" fill="#C09473" />
<rect x="120" y="156" width="12" height="12" fill="#AD7757" />
<rect x="132" y="156" width="12" height="12" fill="#C09473" />
<rect x="144" y="156" width="12" height="12" fill="#C09473" />
<rect x="156" y="156" width="12" height="12" fill="#AD7757" />
<rect x="168" y="156" width="12" height="12" fill="#C09473" />
<rect x="180" y="156" width="12" height="12" fill="#C09473" />
<rect x="192" y="156" width="12" height="12" fill="#7A4841" />
<rect x="0" y="168" width="12" height="12" fill="#592F80" />
<rect x="12" y="168" width="12" height="12" fill="#CC4AD3" />
<rect x="24" y="168" width="12" height="12" fill="#8D32B3" />
<rect x="36" y="168" width="12" height="12" fill="#592F80" />
<rect x="48" y="168" width="12" height="12" fill="#C09473" />
<rect x="60" y="168" width="12" height="12" fill="#C09473" />
<rect x="72" y="168" width="12" height="12" fill="#C09473" />
<rect x="84" y="168" width="12" height="12" fill="#C09473" />
<rect x="96" y="168" width="12" height="12" fill="#7A4841" />
<rect x="108" y="168" width="12" height="12" fill="#C09473" />
<rect x="120" y="168" width="12" height="12" fill="#AD7757" />
<rect x="132" y="168" width="12" height="12" fill="#C09473" />
<rect x="144" y="168" width="12" height="12" fill="#C09473" />
<rect x="156" y="168" width="12" height="12" fill="#AD7757" />
<rect x="168" y="168" width="12" height="12" fill="#7A4841" />
<rect x="180" y="168" width="12" height="12" fill="#7A4841" />
<rect x="192" y="168" width="12" height="12" fill="#7A4841" />
<rect x="0" y="180" width="12" height="12" fill="#592F80" />
<rect x="12" y="180" width="12" height="12" fill="#CC4AD3" />
<rect x="24" y="180" width="12" height="12" fill="#8D32B3" />
<rect x="36" y="180" width="12" height="12" fill="#592F80" />
<rect x="48" y="180" width="12" height="12" fill="#C09473" />
<rect x="60" y="180" width="12" height="12" fill="#7A4841" />
<rect x="72" y="180" width="12" height="12" fill="#7A4841" />
<rect x="84" y="180" width="12" height="12" fill="#7A4841" />
<rect x="96" y="180" width="12" height="12" fill="#7A4841" />
<rect x="108" y="180" width="12" height="12" fill="#7A4841" />
<rect x="120" y="180" width="12" height="12" fill="#C09473" />
<rect x="132" y="180" width="12" height="12" fill="#7A4841" />
<rect x="144" y="180" width="12" height="12" fill="#7A4841" />
<rect x="156" y="180" width="12" height="12" fill="#C09473" />
<rect x="168" y="180" width="12" height="12" fill="#C09473" />
<rect x="180" y="180" width="12" height="12" fill="#C09473" />
<rect x="192" y="180" width="12" height="12" fill="#7A4841" />
<rect x="0" y="192" width="12" height="12" fill="#592F80" />
<rect x="12" y="192" width="12" height="12" fill="#CC4AD3" />
<rect x="24" y="192" width="12" height="12" fill="#8D32B3" />
<rect x="36" y="192" width="12" height="12" fill="#8D32B3" />
<rect x="48" y="192" width="12" height="12" fill="#592F80" />
<rect x="60" y="192" width="12" height="12" fill="#7A4841" />
<rect x="72" y="192" width="12" height="12" fill="#C09473" />
<rect x="84" y="192" width="12" height="12" fill="#C09473" />
<rect x="96" y="192" width="12" height="12" fill="#AD7757" />
<rect x="108" y="192" width="12" height="12" fill="#C09473" />
<rect x="120" y="192" width="12" height="12" fill="#C09473" />
<rect x="132" y="192" width="12" height="12" fill="#C09473" />
<rect x="144" y="192" width="12" height="12" fill="#C09473" />
<rect x="156" y="192" width="12" height="12" fill="#C09473" />
<rect x="168" y="192" width="12" height="12" fill="#C09473" />
<rect x="180" y="192" width="12" height="12" fill="#C09473" />
<rect x="192" y="192" width="12" height="12" fill="#7A4841" />
<rect x="12" y="204" width="12" height="12" fill="#592F80" />
<rect x="24" y="204" width="12" height="12" fill="#CC4AD3" />
<rect x="36" y="204" width="12" height="12" fill="#8D32B3" />
<rect x="48" y="204" width="12" height="12" fill="#592F80" />
<rect x="60" y="204" width="12" height="12" fill="#C09473" />
<rect x="72" y="204" width="12" height="12" fill="#7A4841" />
<rect x="84" y="204" width="12" height="12" fill="#C09473" />
<rect x="96" y="204" width="12" height="12" fill="#AD7757" />
<rect x="108" y="204" width="12" height="12" fill="#C09473" />
<rect x="120" y="204" width="12" height="12" fill="#C09473" />
<rect x="132" y="204" width="12" height="12" fill="#C09473" />
<rect x="144" y="204" width="12" height="12" fill="#C09473" />
<rect x="156" y="204" width="12" height="12" fill="#C09473" />
<rect x="168" y="204" width="12" height="12" fill="#C09473" />
<rect x="180" y="204" width="12" height="12" fill="#C09473" />
<rect x="192" y="204" width="12" height="12" fill="#7A4841" />
<rect x="12" y="216" width="12" height="12" fill="#592F80" />
<rect x="24" y="216" width="12" height="12" fill="#CC4AD3" />
<rect x="36" y="216" width="12" height="12" fill="#8D32B3" />
<rect x="48" y="216" width="12" height="12" fill="#592F80" />
<rect x="60" y="216" width="12" height="12" fill="#C09473" />
<rect x="72" y="216" width="12" height="12" fill="#C09473" />
<rect x="84" y="216" width="12" height="12" fill="#C09473" />
<rect x="96" y="216" width="12" height="12" fill="#C09473" />
<rect x="108" y="216" width="12" height="12" fill="#C09473" />
<rect x="120" y="216" width="12" height="12" fill="#C09473" />
<rect x="132" y="216" width="12" height="12" fill="#C09473" />
<rect x="144" y="216" width="12" height="12" fill="#C09473" />
<rect x="156" y="216" width="12" height="12" fill="#C09473" />
<rect x="168" y="216" width="12" height="12" fill="#C09473" />
<rect x="180" y="216" width="12" height="12" fill="#7A4841" />
<rect x="24" y="228" width="12" height="12" fill="#592F80" />
<rect x="36" y="228" width="12" height="12" fill="#CC4AD3" />
<rect x="48" y="228" width="12" height="12" fill="#592F80" />
<rect x="60" y="228" width="12" height="12" fill="#C09473" />
<rect x="72" y="228" width="12" height="12" fill="#C09473" />
<rect x="84" y="228" width="12" height="12" fill="#C09473" />
<rect x="96" y="228" width="12" height="12" fill="#C09473" />
<rect x="108" y="228" width="12" height="12" fill="#C09473" />
<rect x="120" y="228" width="12" height="12" fill="#C09473" />
<rect x="132" y="228" width="12" height="12" fill="#C09473" />
<rect x="144" y="228" width="12" height="12" fill="#C09473" />
<rect x="156" y="228" width="12" height="12" fill="#7A4841" />
<rect x="168" y="228" width="12" height="12" fill="#7A4841" />
<rect x="36" y="240" width="12" height="12" fill="#592F80" />
<rect x="60" y="240" width="12" height="12" fill="#AD7757" />
<rect x="72" y="240" width="12" height="12" fill="#AD7757" />
<rect x="84" y="240" width="12" height="12" fill="#AD7757" />
<rect x="96" y="240" width="12" height="12" fill="#AD7757" />
<rect x="108" y="240" width="12" height="12" fill="#AD7757" />
<rect x="120" y="240" width="12" height="12" fill="#AD7757" />
<rect x="132" y="240" width="12" height="12" fill="#AD7757" />
<rect x="144" y="240" width="12" height="12" fill="#AD7757" />
</svg>