<?xml version="1.0" encoding="UTF-8" ?>
<svg version="1.1" width="54" height="63" xmlns="http://www.w3.org/2000/svg" shape-rendering="crispEdges">
<rect x="15" y="0" width="3" height="3" fill="#DE9E41" />
<rect x="18" y="0" width="3" height="3" fill="#DE9E41" />
<rect x="15" y="3" width="3" height="3" fill="#DE9E41" />
<rect x="18" y="3" width="3" height="3" fill="#E8C170" />
<rect x="21" y="3" width="3" height="3" fill="#DE9E41" />
<rect x="15" y="6" width="3" height="3" fill="#DE9E41" />
<rect x="18" y="6" width="3" height="3" fill="#E8C170" />
<rect x="21" y="6" width="3" height="3" fill="#E8C170" />
<rect x="24" y="6" width="3" height="3" fill="#DE9E41" />
<rect x="15" y="9" width="3" height="3" fill="#DE9E41" />
<rect x="18" y="9" width="3" height="3" fill="#E8C170" />
<rect x="21" y="9" width="3" height="3" fill="#E8C170" />
<rect x="24" y="9" width="3" height="3" fill="#DE9E41" />
<rect x="18" y="12" width="3" height="3" fill="#DE9E41" />
<rect x="21" y="12" width="3" height="3" fill="#E8C170" />
<rect x="24" y="12" width="3" height="3" fill="#E8C170" />
<rect x="27" y="12" width="3" height="3" fill="#DE9E41" />
<rect x="18" y="15" width="3" height="3" fill="#DE9E41" />
<rect x="21" y="15" width="3" height="3" fill="#E8C170" />
<rect x="24" y="15" width="3" height="3" fill="#E8C170" />
<rect x="27" y="15" width="3" height="3" fill="#DE9E41" />
<rect x="12" y="18" width="3" height="3" fill="#DE9E41" />
<rect x="15" y="18" width="3" height="3" fill="#DE9E41" />
<rect x="18" y="18" width="3" height="3" fill="#E8C170" />
<rect x="21" y="18" width="3" height="3" fill="#E8C170" />
<rect x="24" y="18" width="3" height="3" fill="#E8C170" />
<rect x="27" y="18" width="3" height="3" fill="#E8C170" />
<rect x="30" y="18" width="3" height="3" fill="#DE9E41" />
<rect x="9" y="21" width="3" height="3" fill="#DE9E41" />
<rect x="12" y="21" width="3" height="3" fill="#E8C170" />
<rect x="15" y="21" width="3" height="3" fill="#E8C170" />
<rect x="18" y="21" width="3" height="3" fill="#E8C170" />
<rect x="21" y="21" width="3" height="3" fill="#E8C170" />
<rect x="24" y="21" width="3" height="3" fill="#DE9E41" />
<rect x="27" y="21" width="3" height="3" fill="#DE9E41" />
<rect x="12" y="24" width="3" height="3" fill="#DE9E41" />
<rect x="15" y="24" width="3" height="3" fill="#E8C170" />
<rect x="18" y="24" width="3" height="3" fill="#E8C170" />
<rect x="21" y="24" width="3" height="3" fill="#DE9E41" />
<rect x="24" y="24" width="3" height="3" fill="#AD7757" />
<rect x="27" y="24" width="3" height="3" fill="#AD7757" />
<rect x="12" y="27" width="3" height="3" fill="#DE9E41" />
<rect x="15" y="27" width="3" height="3" fill="#E8C170" />
<rect x="18" y="27" width="3" height="3" fill="#E8C170" />
<rect x="21" y="27" width="3" height="3" fill="#AD7757" />
<rect x="24" y="27" width="3" height="3" fill="#D7B594" />
<rect x="27" y="27" width="3" height="3" fill="#D7B594" />
<rect x="30" y="27" width="3" height="3" fill="#AD7757" />
<rect x="33" y="27" width="3" height="3" fill="#AD7757" />
<rect x="36" y="27" width="3" height="3" fill="#AD7757" />
<rect x="15" y="30" width="3" height="3" fill="#DE9E41" />
<rect x="18" y="30" width="3" height="3" fill="#E8C170" />
<rect x="21" y="30" width="3" height="3" fill="#AD7757" />
<rect x="24" y="30" width="3" height="3" fill="#D7B594" />
<rect x="27" y="30" width="3" height="3" fill="#C09473" />
<rect x="30" y="30" width="3" height="3" fill="#AD7757" />
<rect x="33" y="30" width="3" height="3" fill="#D7B594" />
<rect x="36" y="30" width="3" height="3" fill="#C09473" />
<rect x="39" y="30" width="3" height="3" fill="#AD7757" />
<rect x="42" y="30" width="3" height="3" fill="#AD7757" />
<rect x="45" y="30" width="3" height="3" fill="#AD7757" />
<rect x="15" y="33" width="3" height="3" fill="#DE9E41" />
<rect x="18" y="33" width="3" height="3" fill="#E8C170" />
<rect x="21" y="33" width="3" height="3" fill="#AD7757" />
<rect x="24" y="33" width="3" height="3" fill="#D7B594" />
<rect x="27" y="33" width="3" height="3" fill="#C09473" />
<rect x="30" y="33" width="3" height="3" fill="#AD7757" />
<rect x="33" y="33" width="3" height="3" fill="#D7B594" />
<rect x="36" y="33" width="3" height="3" fill="#C09473" />
<rect x="39" y="33" width="3" height="3" fill="#AD7757" />
<rect x="42" y="33" width="3" height="3" fill="#D7B594" />
<rect x="45" y="33" width="3" height="3" fill="#C09473" />
<rect x="48" y="33" width="3" height="3" fill="#AD7757" />
<rect x="9" y="36" width="3" height="3" fill="#AD7757" />
<rect x="12" y="36" width="3" height="3" fill="#AD7757" />
<rect x="15" y="36" width="3" height="3" fill="#AD7757" />
<rect x="18" y="36" width="3" height="3" fill="#AD7757" />
<rect x="21" y="36" width="3" height="3" fill="#AD7757" />
<rect x="24" y="36" width="3" height="3" fill="#C09473" />
<rect x="27" y="36" width="3" height="3" fill="#C09473" />
<rect x="30" y="36" width="3" height="3" fill="#AD7757" />
<rect x="33" y="36" width="3" height="3" fill="#D7B594" />
<rect x="36" y="36" width="3" height="3" fill="#C09473" />
<rect x="39" y="36" width="3" height="3" fill="#AD7757" />
<rect x="42" y="36" width="3" height="3" fill="#D7B594" />
<rect x="45" y="36" width="3" height="3" fill="#C09473" />
<rect x="48" y="36" width="3" height="3" fill="#7A4841" />
<rect x="9" y="39" width="3" height="3" fill="#AD7757" />
<rect x="12" y="39" width="3" height="3" fill="#D7B594" />
<rect x="15" y="39" width="3" height="3" fill="#C09473" />
<rect x="18" y="39" width="3" height="3" fill="#C09473" />
<rect x="21" y="39" width="3" height="3" fill="#C09473" />
<rect x="24" y="39" width="3" height="3" fill="#7A4841" />
<rect x="27" y="39" width="3" height="3" fill="#C09473" />
<rect x="30" y="39" width="3" height="3" fill="#AD7757" />
<rect x="33" y="39" width="3" height="3" fill="#C09473" />
<rect x="36" y="39" width="3" height="3" fill="#C09473" />
<rect x="39" y="39" width="3" height="3" fill="#AD7757" />
<rect x="42" y="39" width="3" height="3" fill="#C09473" />
<rect x="45" y="39" width="3" height="3" fill="#C09473" />
<rect x="48" y="39" width="3" height="3" fill="#7A4841" />
<rect x="6" y="42" width="3" height="3" fill="#AD7757" />
<rect x="9" y="42" width="3" height="3" fill="#D7B594" />
<rect x="12" y="42" width="3" height="3" fill="#C09473" />
<rect x="15" y="42" width="3" height="3" fill="#C09473" />
<rect x="18" y="42" width="3" height="3" fill="#C09473" />
<rect x="21" y="42" width="3" height="3" fill="#C09473" />
<rect x="24" y="42" width="3" height="3" fill="#7A4841" />
<rect x="27" y="42" width="3" height="3" fill="#C09473" />
<rect x="30" y="42" width="3" height="3" fill="#AD7757" />
<rect x="33" y="42" width="3" height="3" fill="#C09473" />
<rect x="36" y="42" width="3" height="3" fill="#C09473" />
<rect x="39" y="42" width="3" height="3" fill="#AD7757" />
<rect x="42" y="42" width="3" height="3" fill="#7A4841" />
<rect x="45" y="42" width="3" height="3" fill="#7A4841" />
<rect x="48" y="42" width="3" height="3" fill="#7A4841" />
<rect x="6" y="45" width="3" height="3" fill="#AD7757" />
<rect x="9" y="45" width="3" height="3" fill="#D7B594" />
<rect x="12" y="45" width="3" height="3" fill="#C09473" />
<rect x="15" y="45" width="3" height="3" fill="#7A4841" />
<rect x="18" y="45" width="3" height="3" fill="#7A4841" />
<rect x="21" y="45" width="3" height="3" fill="#7A4841" />
<rect x="24" y="45" width="3" height="3" fill="#7A4841" />
<rect x="27" y="45" width="3" height="3" fill="#7A4841" />
<rect x="30" y="45" width="3" height="3" fill="#C09473" />
<rect x="33" y="45" width="3" height="3" fill="#7A4841" />
<rect x="36" y="45" width="3" height="3" fill="#7A4841" />
<rect x="39" y="45" width="3" height="3" fill="#C09473" />
<rect x="42" y="45" width="3" height="3" fill="#C09473" />
<rect x="45" y="45" width="3" height="3" fill="#C09473" />
<rect x="48" y="45" width="3" height="3" fill="#7A4841" />
<rect x="6" y="48" width="3" height="3" fill="#AD7757" />
<rect x="9" y="48" width="3" height="3" fill="#D7B594" />
<rect x="12" y="48" width="3" height="3" fill="#C09473" />
<rect x="15" y="48" width="3" height="3" fill="#7A4841" />
<rect x="18" y="48" width="3" height="3" fill="#C09473" />
<rect x="21" y="48" width="3" height="3" fill="#C09473" />
<rect x="24" y="48" width="3" height="3" fill="#AD7757" />
<rect x="27" y="48" width="3" height="3" fill="#C09473" />
<rect x="30" y="48" width="3" height="3" fill="#C09473" />
<rect x="33" y="48" width="3" height="3" fill="#C09473" />
<rect x="36" y="48" width="3" height="3" fill="#C09473" />
<rect x="39" y="48" width="3" height="3" fill="#C09473" />
<rect x="42" y="48" width="3" height="3" fill="#C09473" />
<rect x="45" y="48" width="3" height="3" fill="#C09473" />
<rect x="48" y="48" width="3" height="3" fill="#7A4841" />
<rect x="6" y="51" width="3" height="3" fill="#AD7757" />
<rect x="9" y="51" width="3" height="3" fill="#D7B594" />
<rect x="12" y="51" width="3" height="3" fill="#C09473" />
<rect x="15" y="51" width="3" height="3" fill="#C09473" />
<rect x="18" y="51" width="3" height="3" fill="#7A4841" />
<rect x="21" y="51" width="3" height="3" fill="#C09473" />
<rect x="24" y="51" width="3" height="3" fill="#AD7757" />
<rect x="27" y="51" width="3" height="3" fill="#C09473" />
<rect x="30" y="51" width="3" height="3" fill="#C09473" />
<rect x="33" y="51" width="3" height="3" fill="#C09473" />
<rect x="36" y="51" width="3" height="3" fill="#C09473" />
<rect x="39" y="51" width="3" height="3" fill="#C09473" />
<rect x="42" y="51" width="3" height="3" fill="#C09473" />
<rect x="45" y="51" width="3" height="3" fill="#C09473" />
<rect x="48" y="51" width="3" height="3" fill="#7A4841" />
<rect x="6" y="54" width="3" height="3" fill="#AD7757" />
<rect x="9" y="54" width="3" height="3" fill="#C09473" />
<rect x="12" y="54" width="3" height="3" fill="#C09473" />
<rect x="15" y="54" width="3" height="3" fill="#C09473" />
<rect x="18" y="54" width="3" height="3" fill="#C09473" />
<rect x="21" y="54" width="3" height="3" fill="#C09473" />
<rect x="24" y="54" width="3" height="3" fill="#C09473" />
<rect x="27" y="54" width="3" height="3" fill="#C09473" />
<rect x="30" y="54" width="3" height="3" fill="#C09473" />
<rect x="33" y="54" width="3" height="3" fill="#C09473" />
<rect x="36" y="54" width="3" height="3" fill="#C09473" />
<rect x="39" y="54" width="3" height="3" fill="#C09473" />
<rect x="42" y="54" width="3" height="3" fill="#C09473" />
<rect x="45" y="54" width="3" height="3" fill="#7A4841" />
<rect x="9" y="57" width="3" height="3" fill="#AD7757" />
<rect x="12" y="57" width="3" height="3" fill="#AD7757" />
<rect x="15" y="57" width="3" height="3" fill="#C09473" />
<rect x="18" y="57" width="3" height="3" fill="#C09473" />
<rect x="21" y="57" width="3" height="3" fill="#C09473" />
<rect x="24" y="57" width="3" height="3" fill="#C09473" />
<rect x="27" y="57" width="3" height="3" fill="#C09473" />
<rect x="30" y="57" width="3" height="3" fill="#C09473" />
<rect x="33" y="57" width="3" height="3" fill="#C09473" />
<rect x="36" y="57" width="3" height="3" fill="#C09473" />
<rect x="39" y="57" width="3" height="3" fill="#7A4841" />
<rect x="42" y="57" width="3" height="3" fill="#7A4841" />
<rect x="15" y="60" width="3" height="3" fill="#AD7757" />
<rect x="18" y="60" width="3" height="3" fill="#AD7757" />
<rect x="21" y="60" width="3" height="3" fill="#AD7757" />
<rect x="24" y="60" width="3" height="3" fill="#AD7757" />
<rect x="27" y="60" width="3" height="3" fill="#AD7757" />
<rect x="30" y="60" width="3" height="3" fill="#AD7757" />
<rect x="33" y="60" width="3" height="3" fill="#AD7757" />
<rect x="36" y="60" width="3" height="3" fill="#AD7757" />
</svg>