<?xml version="1.0" encoding="UTF-8" ?>
<svg version="1.1" width="300" height="300" xmlns="http://www.w3.org/2000/svg" shape-rendering="crispEdges">
<rect x="180" y="60" width="30" height="30" fill="#A53030" />
<rect x="210" y="60" width="30" height="30" fill="#A53030" />
<rect x="150" y="90" width="30" height="30" fill="#A53030" />
<rect x="180" y="90" width="30" height="30" fill="#A53030" />
<rect x="210" y="90" width="30" height="30" fill="#A53030" />
<rect x="120" y="120" width="30" height="30" fill="#A53030" />
<rect x="150" y="120" width="30" height="30" fill="#A53030" />
<rect x="180" y="120" width="30" height="30" fill="#A53030" />
<rect x="90" y="150" width="30" height="30" fill="#A53030" />
<rect x="120" y="150" width="30" height="30" fill="#A53030" />
<rect x="150" y="150" width="30" height="30" fill="#A53030" />
<rect x="60" y="180" width="30" height="30" fill="#A53030" />
<rect x="90" y="180" width="30" height="30" fill="#A53030" />
<rect x="120" y="180" width="30" height="30" fill="#A53030" />
<rect x="60" y="210" width="30" height="30" fill="#A53030" />
<rect x="90" y="210" width="30" height="30" fill="#A53030" />
</svg>