<?xml version="1.0" encoding="UTF-8" ?>
<svg version="1.1" width="100" height="100" xmlns="http://www.w3.org/2000/svg" shape-rendering="crispEdges">
<rect x="30" y="10" width="10" height="10" fill="#151D28" />
<rect x="40" y="10" width="10" height="10" fill="#151D28" />
<rect x="50" y="10" width="10" height="10" fill="#151D28" />
<rect x="60" y="10" width="10" height="10" fill="#151D28" />
<rect x="20" y="20" width="10" height="10" fill="#151D28" />
<rect x="30" y="20" width="10" height="10" fill="#151D28" />
<rect x="40" y="20" width="10" height="10" fill="#C7CFCC" />
<rect x="50" y="20" width="10" height="10" fill="#819796" />
<rect x="60" y="20" width="10" height="10" fill="#151D28" />
<rect x="70" y="20" width="10" height="10" fill="#151D28" />
<rect x="10" y="30" width="10" height="10" fill="#151D28" />
<rect x="20" y="30" width="10" height="10" fill="#151D28" />
<rect x="30" y="30" width="10" height="10" fill="#C7CFCC" />
<rect x="40" y="30" width="10" height="10" fill="#577277" />
<rect x="50" y="30" width="10" height="10" fill="#577277" />
<rect x="60" y="30" width="10" height="10" fill="#394A50" />
<rect x="70" y="30" width="10" height="10" fill="#151D28" />
<rect x="80" y="30" width="10" height="10" fill="#151D28" />
<rect x="0" y="40" width="10" height="10" fill="#151D28" />
<rect x="10" y="40" width="10" height="10" fill="#151D28" />
<rect x="20" y="40" width="10" height="10" fill="#A8B5B2" />
<rect x="30" y="40" width="10" height="10" fill="#577277" />
<rect x="40" y="40" width="10" height="10" fill="#394A50" />
<rect x="50" y="40" width="10" height="10" fill="#577277" />
<rect x="60" y="40" width="10" height="10" fill="#394A50" />
<rect x="70" y="40" width="10" height="10" fill="#394A50" />
<rect x="80" y="40" width="10" height="10" fill="#151D28" />
<rect x="0" y="50" width="10" height="10" fill="#151D28" />
<rect x="10" y="50" width="10" height="10" fill="#C7CFCC" />
<rect x="20" y="50" width="10" height="10" fill="#577277" />
<rect x="30" y="50" width="10" height="10" fill="#577277" />
<rect x="40" y="50" width="10" height="10" fill="#577277" />
<rect x="50" y="50" width="10" height="10" fill="#577277" />
<rect x="60" y="50" width="10" height="10" fill="#577277" />
<rect x="70" y="50" width="10" height="10" fill="#394A50" />
<rect x="80" y="50" width="10" height="10" fill="#151D28" />
<rect x="90" y="50" width="10" height="10" fill="#151D28" />
<rect x="0" y="60" width="10" height="10" fill="#151D28" />
<rect x="10" y="60" width="10" height="10" fill="#819796" />
<rect x="20" y="60" width="10" height="10" fill="#394A50" />
<rect x="30" y="60" width="10" height="10" fill="#577277" />
<rect x="40" y="60" width="10" height="10" fill="#C7CFCC" />
<rect x="50" y="60" width="10" height="10" fill="#819796" />
<rect x="60" y="60" width="10" height="10" fill="#577277" />
<rect x="70" y="60" width="10" height="10" fill="#577277" />
<rect x="80" y="60" width="10" height="10" fill="#394A50" />
<rect x="90" y="60" width="10" height="10" fill="#151D28" />
<rect x="0" y="70" width="10" height="10" fill="#151D28" />
<rect x="10" y="70" width="10" height="10" fill="#577277" />
<rect x="20" y="70" width="10" height="10" fill="#577277" />
<rect x="30" y="70" width="10" height="10" fill="#C7CFCC" />
<rect x="40" y="70" width="10" height="10" fill="#577277" />
<rect x="50" y="70" width="10" height="10" fill="#394A50" />
<rect x="60" y="70" width="10" height="10" fill="#577277" />
<rect x="70" y="70" width="10" height="10" fill="#819796" />
<rect x="80" y="70" width="10" height="10" fill="#577277" />
<rect x="90" y="70" width="10" height="10" fill="#151D28" />
<rect x="0" y="80" width="10" height="10" fill="#151D28" />
<rect x="10" y="80" width="10" height="10" fill="#577277" />
<rect x="20" y="80" width="10" height="10" fill="#819796" />
<rect x="30" y="80" width="10" height="10" fill="#577277" />
<rect x="40" y="80" width="10" height="10" fill="#577277" />
<rect x="50" y="80" width="10" height="10" fill="#577277" />
<rect x="60" y="80" width="10" height="10" fill="#577277" />
<rect x="70" y="80" width="10" height="10" fill="#394A50" />
<rect x="80" y="80" width="10" height="10" fill="#819796" />
<rect x="90" y="80" width="10" height="10" fill="#151D28" />
<rect x="0" y="90" width="10" height="10" fill="#151D28" />
<rect x="10" y="90" width="10" height="10" fill="#151D28" />
<rect x="20" y="90" width="10" height="10" fill="#151D28" />
<rect x="30" y="90" width="10" height="10" fill="#151D28" />
<rect x="40" y="90" width="10" height="10" fill="#151D28" />
<rect x="50" y="90" width="10" height="10" fill="#151D28" />
<rect x="60" y="90" width="10" height="10" fill="#151D28" />
<rect x="70" y="90" width="10" height="10" fill="#151D28" />
<rect x="80" y="90" width="10" height="10" fill="#151D28" />
<rect x="90" y="90" width="10" height="10" fill="#151D28" />
</svg>